<?xml version="1.0" encoding="UTF-8" standalone="no"?>
<!DOCTYPE svg PUBLIC "-//W3C//DTD SVG 1.1//EN" "http://www.w3.org/Graphics/SVG/1.1/DTD/svg11.dtd">
<svg width="100%" height="100%" viewBox="0 0 1000 1000" version="1.1" xmlns="http://www.w3.org/2000/svg" xmlns:xlink="http://www.w3.org/1999/xlink" xml:space="preserve" xmlns:serif="http://www.serif.com/" style="fill-rule:evenodd;clip-rule:evenodd;stroke-linejoin:round;stroke-miterlimit:2;">
    <g id="Background" transform="matrix(1,0,0,1,82,5)">
        <g transform="matrix(1.055192,0,0,1.034804,-137.191768,-25.18234)">
            <ellipse cx="526.152" cy="502.687" rx="473.848" ry="483.183" style="fill:white;"/>
        </g>
        <path d="M532.31,671.777C522.985,661.881 522.383,661.398 521.409,660.618C516.666,656.815 516.898,656.602 487.361,626.638C482.408,621.614 481.805,625.595 481.262,627.433C478.072,638.224 477.7,638.038 473.1,648.322C465.731,664.795 467.313,669.585 458.513,667.457C455.136,666.64 454.121,670.153 454.89,671.245C456.25,673.177 456.754,672.151 461.491,671.79C465.864,671.456 455.673,683.097 454.947,683.927C447.839,692.046 449.254,692.958 448.584,693.597C447.552,694.581 445.967,695.714 434.833,682.261C433.201,680.29 440.885,668.647 443.046,658.412C449.321,628.698 448.263,628.423 443.629,598.479C442.258,589.625 434.994,562.774 432.377,558.569C425.877,548.126 427.183,547.469 424.183,542.718C419.741,535.682 407.691,540.097 394.706,559.635C365.632,603.384 396.164,643.527 409.113,663.74C420.189,681.027 464.612,722.747 474.436,730.579C506.066,755.797 523.22,769.606 517.116,827.451C516.844,830.038 514.925,831.917 514.417,833.471C508.714,850.894 508.779,850.902 508.242,852.402C505.795,859.233 488.207,885.088 485.49,885.071C475.013,885.006 503.835,854.87 505.342,831.488C505.424,830.21 506.214,817.943 505.965,815.486C502.384,780.212 494.2,775.62 483.728,760.353C472.018,743.282 453.204,739.598 451.719,729.458C451.176,725.748 448.204,730.576 445.904,728.13C441.754,723.717 440.625,727.126 441.183,728.586C446.955,743.709 451.62,753.745 452.002,754.712C455.462,763.478 452.795,764.447 454.752,766.173C456.986,768.144 455.321,768.984 456.834,771.277C458.326,773.538 461.858,778.891 463.346,804.506C465.38,839.529 459.843,838.873 458.733,845.56C455.636,864.232 453.839,863.859 453.897,865.5C453.991,868.142 454.361,868.153 452.126,879.413C449.583,892.221 432.471,938.202 431.063,940.184C428.735,943.459 430.063,943.89 428.633,947.551C421.451,965.944 419.093,981.589 415.373,980.845C413.428,980.456 406.603,952.444 405.493,947.501C402.357,933.535 381.317,890.245 373.139,835.558C370.936,820.831 368.22,810.623 370.819,802.628C371.351,802.402 371.883,802.176 372.415,801.95C376.19,801.65 376.171,801.564 376.492,801.626C378.782,802.073 377.911,807.769 384.507,808.441C386.848,808.68 388.742,825.603 389.28,826.615C393.888,835.293 393.502,835.447 394.261,844.522C394.974,853.049 397.884,868.405 398.016,870.524C398.086,871.648 398.783,882.856 399.233,884.554C407.978,917.534 411.181,924.13 412.75,927.361C417.513,937.168 427.834,912.717 431.657,890.526C441.138,835.501 438.768,793.119 438.729,780.5C438.637,751.082 416.975,710.139 412.187,704.776C405.839,697.664 398.57,683.544 394.378,679.631C383.206,669.201 378.022,686.186 376.265,690.406C363.135,721.937 312.901,709.724 290.982,742.813C278.498,761.659 293.093,828.253 289.645,839.544C287.298,847.232 288.076,852.801 285.489,852.559C282.659,852.293 280.992,815.928 278.549,806.486C276.781,799.655 275.928,765.775 276.018,765.389C278.449,754.968 272.753,753.725 280.922,736.714C298.774,699.542 340.901,695.842 358.122,682.041C383.013,662.093 378.02,645.706 376.995,642.342C373.438,630.67 369.36,617.1 362.18,628.291C348.297,649.93 344.725,646.459 306.678,668.795C287.967,679.78 264.702,705.475 260.89,719.715C260.648,719.523 258.641,717.924 257.481,717.885C251.559,717.684 259.388,722.364 259.746,722.578C253.615,735.697 254.291,735.865 249.891,749.617C243.468,769.693 245.873,772.749 245.265,779.48C242.297,812.302 245.902,826.225 244.723,829.572C241.76,837.98 236.447,819.881 235.919,818.362C230.581,803 229.724,775.587 229.933,773.527C235.789,715.79 242.359,711.733 249.916,698.754C252.656,694.048 255.831,696.686 256.721,694.628C257.023,693.93 257.048,693.11 257.46,692.471C257.925,691.749 260.553,691.682 260.809,690.619C261.303,688.567 254.826,682.656 275.167,666.095C280.852,661.467 283.144,664.505 287.255,658.352C288.93,655.846 292.626,650.313 316.778,634.947C356.905,609.418 355.936,584.473 365.933,567.769C373.2,555.628 377.287,539.827 390.832,530.997C411.184,517.73 414.155,510.764 417.545,511.236C421.151,511.738 441.233,540.549 444.074,544.783C450.59,554.495 456.443,586.65 461.519,585.559C462.829,585.277 462.519,577.228 462.491,576.5C462.34,572.558 468.637,571.89 465.613,570.37C461.662,568.384 463.413,567.127 460.156,556.608C452.581,532.145 452.138,532.014 435.024,512.937C426.567,503.51 421.183,504.55 424.64,500.621C439.937,483.235 440.816,482.466 442.147,483.875C451.175,493.441 451.921,492.604 460.372,502.608C476.155,521.291 475.341,521.835 485.959,536.131C497.666,551.893 500.74,547.836 519.467,553.607C554.784,564.489 555.032,563.155 591.435,569.836C622.134,575.471 638.261,581.01 666.539,587.326C690.67,592.716 699.055,606.698 701.545,607.334C708.411,609.089 713.288,614.85 726.614,622.296C734.524,626.716 776.001,660.056 776.451,661.517C779.897,672.704 740.007,632.988 728.846,643.871C723.459,649.123 736.656,665.295 734.56,677.51C733.87,681.528 733.54,681.46 734.041,685.542C735.65,698.665 727.696,725.424 726.373,726.249C720.555,729.88 724.792,689.889 719.934,678.323C710.752,656.46 711.877,647.629 698.093,629.822C683.56,611.046 657.505,601.159 650.475,603.428C643.305,605.742 653.473,615.279 659.053,633.637C672.372,677.452 692.95,724.058 692.618,737.497C692.348,748.449 697.561,762.644 691.104,771.129C686.801,776.783 683.339,752.22 680.74,744.413C675.77,729.481 678.905,728.839 678.086,727.767C674.32,722.835 675.293,722.431 673.609,716.468C666.544,691.461 653.132,658.916 653.046,658.758C649.182,651.676 650.572,650.036 649.2,646.63C646.345,639.543 646.149,639.712 643.253,632.607C632.735,606.804 629.201,608.6 618.411,605.863C574.083,594.618 564.955,591.121 560.835,594.877C551.26,603.607 580.625,607.431 595.152,629.739C596.101,631.196 597.283,633.011 601.744,650.44C603.193,656.102 611.997,690.496 628.843,718.275C647.084,748.355 636.753,753.43 636.771,761.518C636.809,777.523 624.468,792.949 624.259,793.074C619.535,795.901 622.17,762.623 622.807,760.602C626.188,749.863 611.492,715.705 607.191,707.667C590.434,676.347 587.253,647.167 572.959,631.075C553.267,608.908 525.366,596.176 520.705,594.049C518.081,592.851 489.62,579.864 487.453,580.089C483.732,580.475 485.543,598.572 486.742,600.334C492.663,609.044 492.988,613.192 503.612,623.381C523.447,642.405 523.845,642.001 533.588,647.345C534.307,647.739 539.18,650.412 542.187,652.913C567.884,674.288 578.647,700.653 582.976,710.281C587.77,720.944 592.008,753.41 592.019,753.536C595.188,788.819 587.185,808.982 585.405,813.465C582.98,819.575 568.406,846.251 567.286,839.565C566.891,837.205 572.273,817.308 572.572,816.524C574.861,810.518 574.022,810.345 576.214,804.393C584.94,780.704 571.708,723.397 562.724,707.375C548.41,681.847 535.461,674.634 532.31,671.777Z" style="fill:rgb(1,1,1);fill-opacity:0.99;"/>
        <path d="M366.041,313.999C379.347,326.156 393.942,340.934 425.488,337.395C437.737,336.02 462.218,325.947 475.016,300.264C478.197,293.88 484.809,282.748 484.589,255.5C484.162,202.802 424.81,172.339 402.692,151.294C389.207,138.463 372.726,121.705 377.371,74.488C379.903,48.739 397.491,22.28 401.5,22.504C408.367,22.887 403.872,18.75 403.995,17.568C404.104,16.52 404.201,16.468 412.666,7.658C414.693,5.549 417.382,1.619 427.084,13.807C429.866,17.302 426.517,17.06 425.814,18.656C424.027,22.716 431.618,20.211 432.387,20.682C440.367,25.568 464.423,63.529 457.083,107.436C451.193,142.668 446.785,143.21 444.674,141.249C426.991,124.828 421.812,126.141 424.826,120.671C426.927,116.859 430.427,112.316 431.446,87.5C431.458,87.21 428.957,75 428.082,72.662C425.746,66.424 418.119,53.817 414.947,57.872C411.994,61.645 399.896,72.575 403.905,100.443C407.289,123.958 429.23,138.152 451.81,158.123C473.352,177.176 494.327,203.317 499.001,211.802C520.509,250.848 514.772,284.6 511.362,302.472C507.436,323.048 491.905,345.638 487.376,349.343C466.241,366.632 450.709,379.165 415.498,378.558C375.281,377.864 324.441,343.33 321.561,282.497C320.857,267.641 318.186,229.631 353.799,188.759C358.328,183.56 359.031,184.026 361.553,177.525C362.94,173.951 369.292,173.784 374.342,169.319C390.473,155.06 393.324,156.589 394.478,157.525C404.989,166.049 406.901,167.833 403.219,171.209C387.45,185.668 386.481,184.342 383.753,186.782C378.615,191.379 368.279,206.414 367.048,208.205C365.668,210.213 360.602,217.582 353.585,235.532C352.04,239.482 347.243,251.385 349.687,282.485C350.421,291.816 358.33,306.937 366.041,313.999Z" style="fill:rgb(10,10,10);fill-opacity:0.99;"/>
        <path d="M64.056,653.022C65.649,651.502 79.67,638.114 84.703,634.819C88.211,632.523 94.614,626.124 104.766,618.892C152.482,584.9 169.462,586.498 169.498,586.492C191.933,582.777 208.348,574.326 219.51,573.733C224.422,573.473 222.416,579.377 225.368,578.238C227.852,577.279 224.098,572.728 231.494,571.464C277.626,563.582 277.508,563.295 281.527,562.698C285.367,562.127 292.607,561.05 328.427,550.258C352.281,543.071 368.941,506.035 394.858,485.954C411.366,473.163 433.263,445.281 435.502,438.501C442.592,417.037 434.724,406.536 430.906,397.356C428.335,391.174 445.853,388.383 449.041,392.848C461.521,410.322 458.147,421.535 456.371,431.476C455.53,436.184 452.391,453.752 428.175,484.185C427.142,485.483 424.345,483.753 423.517,483.756C420.92,483.766 421.843,485.011 422.758,487.404C424.254,491.314 412.29,503.628 406.556,508.566C374.762,535.945 375.307,542.344 364.32,557.382C352.372,573.733 351.998,573.404 350.981,574.837C341.656,587.971 303.697,586.35 266.823,622.817C243.022,646.355 241.638,677.698 233.336,686.343C213.518,706.98 192.704,707.051 184.87,728.641C180.084,741.829 181.965,749.024 182.369,753.514C185.306,786.163 190.201,786.07 186.586,806.517C184.365,819.077 181.018,803.06 180.163,794.536C179.045,783.388 167.232,752.443 169.294,731.474C171.48,709.252 197.414,695.566 200.276,693.225C213.759,682.197 217.07,684.75 223.763,668.621C224.558,666.706 227.087,666.515 227.371,664.479C228.04,659.677 228.586,659.917 228.628,659.509C229.429,651.857 230.634,652.094 231.273,644.475C233.474,618.206 265.028,608.206 271.367,602.353C278.048,596.184 274.009,593.204 267.37,592.898C264.048,592.745 260.074,593.261 256.466,594.383C221.866,605.136 205.406,607.105 200.693,612.685C199.888,613.638 198.511,615.268 190.123,624.158C172.537,642.796 172.097,647.19 164.387,655.365C160.835,659.132 159.667,646.179 158.301,644.723C154.055,640.202 157.587,654.283 158.675,656.425C163.199,665.325 153.377,663.521 145.531,686.511C131.561,727.446 140.038,737.571 131.686,756.593C129.869,760.73 126.462,759.899 125.912,757.42C124.671,751.828 124.289,751.965 124.353,751.478C124.823,747.942 124.589,748.001 123.387,744.54C122.681,742.509 123.402,740.46 123.229,739.558C119.137,718.281 134.328,676.803 139.971,667.817C146.4,657.578 146.581,653.918 151.112,647.231C159.747,634.487 161.995,631.99 163.537,632.354C163.801,632.417 166.4,637.112 167.08,632.42C168.545,622.317 170.24,621.81 178.405,613.406C196.936,594.335 125.519,615.176 114.29,644.423C99.967,681.729 98.96,681.313 97.898,684.62C93.804,697.357 92.798,726.873 87.895,715.316C80.58,698.075 86.1,688.541 90.395,677.458C98.852,655.634 102.422,649.128 95.213,643.894C86.729,637.734 60.19,666.973 55.825,663.126C53.942,661.466 62.348,654.596 64.056,653.022Z" style="fill:rgb(1,1,1);fill-opacity:0.99;"/>
        <path d="M373.728,458.244C375.509,460.527 386.366,476.05 386.356,477.497C386.351,478.264 373.124,491.305 368.478,490.895C346.012,488.913 314.821,468.983 308.425,462.573C299.296,453.425 293.296,452.544 279.014,425.731C276.329,420.69 262.442,394.62 265.952,355.541C271.273,296.29 293.893,271.765 300.721,262.671C303.668,258.746 306.454,258.226 306.331,261.51C305.271,289.829 305.16,289.944 311.673,317.457C312.504,320.966 315.056,323.799 313.78,326.615C302.652,351.174 304.333,386.721 318.865,403.186C333.066,419.275 334.112,418.217 335.277,419.668C339.172,424.52 337.665,428.084 341.521,427.857C342.038,427.826 347.033,427.532 347.406,430.534C347.45,430.888 343.558,436.375 347.492,436.332C349.101,436.314 350.426,433.167 352.394,434.65C352.691,434.874 357.103,438.201 354.613,438.742C349.192,439.921 352.405,442.142 353.96,447.401C355.623,453.023 358.91,449.727 358.175,447.591C357.823,446.569 354.974,444.618 358.558,442.589C362.14,440.562 373.353,457.694 373.728,458.244Z" style="fill:rgb(8,8,8);fill-opacity:0.99;"/>
        <path d="M494.814,424.71C494.926,424.615 515.075,405.124 519.087,398.267C541.392,360.145 519.159,334.579 521.952,323.611C527.263,302.759 527.74,302.902 529.734,281.517C531.063,267.269 524.467,251.338 533.115,262.788C545.741,279.503 556.151,288.933 565.841,328.424C572.507,355.589 571.901,400.827 554.617,427.571C550.092,434.573 547.592,443.331 521.3,465.243C517.918,468.062 517.317,467.158 514.322,470.312C508.752,476.174 468.718,495.229 462.695,490.261C462.319,489.952 450.229,476.285 450.024,475.677C449.41,473.852 450.002,472.733 455.726,464.651C460.488,457.928 460.545,458.045 465.62,451.592C469.856,446.206 479.063,438.281 480.309,437.208C481.3,436.226 491.251,427.363 492.435,426.164C492.576,427.276 492.875,427.201 492.712,428.354C492.645,428.83 493.335,429.505 493.416,429.584C493.706,429.868 497.389,430.883 494.814,424.71Z" style="fill:rgb(9,9,9);fill-opacity:0.99;"/>
        <path d="M397.129,204.013C398.281,203.135 406.646,196.758 412.456,194.376C416.25,192.82 437.1,197.617 452.997,223.195C472.372,254.368 458.454,300.873 444.136,312.048C412.464,336.767 394.901,316.726 385.891,309.051C374.26,299.144 368.63,268.744 371.172,252.441C374.344,232.095 380.147,218.632 397.129,204.013Z" style="fill:rgb(12,12,12);fill-opacity:0.99;"/>
        <path d="M372.415,801.95C371.883,802.176 371.351,802.402 370.819,802.628C367.415,791.294 381.498,760.734 353.654,772.836C340.487,778.559 337.285,792.451 338.525,830.499C338.616,833.297 345.446,887.246 338.708,883.102C336.548,881.773 337.355,874.831 334.922,869.313C332.298,863.362 331.626,843.685 318.955,815.299C308.086,790.946 325.194,767.733 335.678,761.801C363.501,746.059 363.754,746.573 389.774,727.867C390.909,727.051 398.903,721.304 404.222,718.049C406.359,716.741 408.874,712.771 411.103,716.709C417.416,727.86 415.904,729.208 410.196,735.206C400.993,744.877 400.353,744.457 391.881,761.693C383.511,778.72 385.034,799.204 385.28,802.502C385.412,804.285 382.237,807.347 379.387,800.507C379.113,799.849 379.412,795.286 373.636,798.704C371.961,799.695 372.513,800.058 372.415,801.95Z" style="fill:rgb(1,1,1);fill-opacity:0.99;"/>
        <path d="M424.924,302.963C423.889,303.785 420.022,306.856 408.404,302.768C394.408,297.844 385.559,252.312 405.596,231.598C405.676,231.516 412.219,227.552 414.453,227.208C435.34,223.987 450.424,269.151 433.264,295.353C431.203,298.501 429.419,299.898 424.924,302.963Z" style="fill:rgb(1,1,1);fill-opacity:0;"/>
        <path d="M408.998,460.997C403.122,465.955 398.294,475.853 394.907,469.243C386.315,452.471 385.651,449.846 396.747,437.73C419.088,413.337 401.168,411.595 400.611,411.809C397.555,412.988 395.236,418.209 395.585,419.481C397.951,428.091 392.501,426.628 382.547,442.547C379.116,448.033 375.581,422.576 376.213,414.475C378.167,389.414 386.207,389.644 398.494,390.586C428.049,392.849 439.193,426.298 420.753,445.751C419.693,446.869 420.257,447.199 408.998,460.997Z" style="fill:rgb(1,1,1);fill-opacity:0.99;"/>
        <path d="M537.992,835.932C530.984,842.552 538.292,826.408 540.255,816.461C541.358,810.866 542.149,811.164 543.123,805.441C543.959,800.534 542.773,800.377 544.473,795.491C544.8,794.551 544.803,771.58 544.803,769.5C544.804,758.366 542.931,749.914 539.799,743.272C529.928,722.335 507.546,719.366 491.89,707.011C489.436,705.073 464.096,685.075 470.344,674.397C471.494,672.431 475.26,668.197 475.717,667.683C476.103,667.249 479.364,662.191 482.095,665.821C490.252,676.664 497.433,691.717 508.707,697.08C517.043,701.045 529.576,705.645 546.286,726.664C547.674,728.41 553.518,742.436 554.559,750.491C555.037,754.191 556.482,756.188 553.25,785.469C552.742,790.072 551.669,789.814 551.322,794.485C550.876,800.507 543.733,827.069 537.992,835.932Z" style="fill:rgb(1,1,1);fill-opacity:0.99;"/>
        <path d="M73.51,479.189C8.264,476.607 8.186,475.46 6.683,474.258C-1.352,467.831 10.424,469.188 30.501,468.526C33.768,468.419 201.296,468.159 245.465,471.941C249.838,472.316 273.48,473.563 266.39,478.331C262.68,480.826 254.667,479.721 200.5,479.559C182.809,479.506 143.774,479.748 89.5,479.49C81.462,479.356 81.542,479.366 73.51,479.189Z" style="fill:rgb(12,12,12);fill-opacity:0.98;"/>
        <path d="M601.486,479.278C594.526,479.594 569.393,481 565.674,479.135C553.263,472.912 588.479,470.357 649.501,469.741C737.383,468.855 825.77,466.909 828.827,470.262C834.867,476.886 799.52,477.668 757.489,479.154C744.476,479.474 744.581,479.468 731.5,479.591C626.565,479.681 626.556,479.921 617.476,479.044C609.394,479.332 609.488,479.528 601.486,479.278Z" style="fill:rgb(12,12,12);fill-opacity:0.98;"/>
        <path d="M220.328,384.999C237.436,390.575 253.323,395.242 241.452,397.204C229.09,399.248 229.703,394.171 184.498,383.509C149.546,375.265 46.265,339.404 45.426,336.533C44.056,331.843 52.94,332.907 107.436,350.682C117.282,353.893 116.947,354.55 126.598,358.198C128.685,358.986 128.99,357.563 153.542,365.357C155.561,365.998 170.896,369.792 192.448,376.664C206.334,381.092 206.505,380.299 220.328,384.999Z" style="fill:rgb(12,12,12);fill-opacity:0.97;"/>
        <path d="M629.349,388.024C588.94,400.934 586.415,398.989 586.396,395.501C586.381,392.664 587.572,392.697 638.542,376.637C679.892,363.608 680.56,366.058 721.485,351.455C736.904,345.953 737.949,349.218 752.643,341.809C753.61,341.321 784.485,331.803 787.461,334.541C790.9,337.704 775.416,341.582 746.669,351.999C732.199,357.242 651.226,383.096 641.451,385.271C635.311,386.637 635.404,386.569 629.349,388.024Z" style="fill:rgb(12,12,12);fill-opacity:0.98;"/>
        <path d="M751.59,384.98C753.809,384.657 761.535,383.534 779.496,382.435C780.128,382.396 789.827,381.802 787.225,384.165C787.078,384.299 764.596,391.055 760.391,392.048C731.926,398.766 731.808,397.791 703.382,405.081C694.53,407.352 685.056,408.161 684.45,408.299C679.923,409.331 654.458,415.134 627.431,419.084C588.634,424.752 588.329,427.34 585.62,425.316C578.437,419.949 593.523,418.054 601.526,416.663C635.736,410.716 693.665,396.466 751.59,384.98Z" style="fill:rgb(12,12,12);fill-opacity:0.98;"/>
        <path d="M145.588,408.004C118.965,402.745 110.402,399.968 98.441,397.785C74.22,393.363 28.453,381.486 49.504,382.162C76.902,383.043 92.694,387.829 98.436,388.831C138.259,395.783 165.883,404.457 242.439,418.79C251.607,420.506 246.849,425.17 244.491,425.401C240.676,425.773 162.258,411.236 145.588,408.004Z" style="fill:rgb(12,12,12);fill-opacity:0.98;"/>
        <path d="M634.536,441.987C672.425,440.631 722.829,436.735 730.497,436.142C731.175,436.089 734.627,436.882 735.498,436.879C747.577,436.835 747.532,436.159 782.5,436.435C792.508,436.513 784.734,441.003 784.354,441.141C782.209,441.916 661.903,449.603 638.494,450.112C580.874,451.366 573.299,453.32 572.203,449.615C570.958,445.403 574.489,446.551 634.536,441.987Z" style="fill:rgb(12,12,12);fill-opacity:0.98;"/>
        <path d="M112.474,436.983C158.15,441.137 256.042,444.131 259.632,447.362C260.242,447.911 262.479,452.56 250.519,452.068C244.839,451.834 244.874,452.283 179.493,449.693C127.927,447.65 128.154,445.509 76.505,443.379C68.313,443.042 49.955,441.753 49.578,441.4C48.774,440.648 47.944,436.752 62.499,436.672C82.559,436.561 82.478,435.378 112.474,436.983Z" style="fill:rgb(12,12,12);fill-opacity:0.98;"/>
        <path d="M196.284,332.999C218.419,342.3 218.135,342.833 222.739,345.003C226.349,346.705 244.961,352.692 237.27,357.055C233.519,359.183 217.031,349.155 212.475,347.588C208.316,346.158 169.86,328.628 148.592,320.262C141.447,317.451 135.054,312.209 114.391,303.755C107.56,300.96 66.412,279.533 64.92,277.26C60.022,269.795 116.47,293.515 134.216,304.936C142.914,310.533 144.142,307.742 155.641,314.248C165.792,319.992 192.99,331.594 196.284,332.999Z" style="fill:rgb(12,12,12);fill-opacity:0.98;"/>
        <path d="M705.221,309.011C676.971,323.179 600.926,358.208 595.528,357.343C591.382,356.679 592.187,351.936 599.657,348.858C629.257,336.663 675.136,314.874 681.638,311.786C688.748,308.41 692.761,308.706 702.806,301.961C708.205,298.336 719.881,294.061 741.267,284.004C749.36,280.197 766.556,274.337 767.415,274.769C773.117,277.639 753.728,283.677 728.752,297.949C717.39,304.442 716.77,302.973 705.221,309.011Z" style="fill:rgb(12,12,12);fill-opacity:0.98;"/>
        <path d="M627.764,356.989C680.163,333.498 729.981,317.384 734.504,319.494C740.108,322.11 724.468,327.838 723.407,328.227C703.307,335.59 704.929,339.061 690.369,344.106C667.929,351.882 668.596,354.293 661.501,354.534C656.076,354.719 651.497,360.69 638.469,364.384C634.364,365.548 633.265,362.447 631.647,364.607C629.114,367.99 628.39,366.911 624.528,368.574C623.382,369.067 607.05,376.099 609.035,370.372C610.811,365.249 627.711,357.017 627.764,356.989Z" style="fill:rgb(12,12,12);fill-opacity:0.97;"/>
        <path d="M210.171,360.988C214.821,363.669 229.952,371.224 221.588,372.947C215.033,374.298 212.697,369.626 183.591,360.199C182.388,359.809 182.451,359.65 168.616,355.118C162.108,352.986 164.126,350.912 163.309,349.629C161.997,347.572 158.19,351.531 149.598,347.292C137.425,341.285 86.449,321.798 97.512,319.546C104.124,318.2 175.982,342.325 210.171,360.988Z" style="fill:rgb(12,12,12);fill-opacity:0.98;"/>
        <path d="M225.01,240.989C238.859,255.199 239.429,254.524 253.381,268.621C254.227,269.476 264.885,278.814 261.509,282.509C257.246,287.176 225.668,252.488 194.74,222.26C190.257,217.879 142.264,170.973 140.762,165.457C140.22,163.466 144.286,162.761 155.6,174.4C157.848,176.713 158.073,176.382 184.649,202.345C194.287,211.761 194.852,211.118 203.726,221.307C204.142,221.785 211.1,226.995 225.01,240.989Z" style="fill:rgb(12,12,12);fill-opacity:0.98;"/>
        <path d="M97.968,221.039C92.142,214.903 103.257,220.983 103.657,221.202C105.367,222.138 127.469,235.968 127.741,236.179C139.548,245.329 140.69,243.618 146.393,248.624C156.591,257.576 169.817,263.28 184.812,274.083C189.218,277.257 236.469,308.441 241.682,311.148C251.979,316.494 244.137,318.69 243.514,318.728C234.243,319.295 174.049,273.234 159.272,264.922C146.422,257.694 147.795,255.813 135.232,247.939C127.293,242.963 127.974,242.125 120.19,236.993C108.715,229.427 108.642,229.646 97.968,221.039Z" style="fill:rgb(12,12,12);fill-opacity:0.98;"/>
        <path d="M675,183.014C631.239,226.564 628.68,229.683 625.055,234.102C621.094,238.93 601.964,257.887 599.916,259.916C575.124,284.484 574.185,284.74 571.541,283.434C565.02,280.213 580.992,268.41 596.152,252.177C610.925,236.357 611.282,236.797 627.205,222.171C660.424,191.657 658.913,190.102 670.913,179.968C671.178,179.744 695.034,156.882 690.633,166.56C689.881,168.213 689.193,167.649 675,183.014Z" style="fill:rgb(12,12,12);fill-opacity:0.98;"/>
        <path d="M205.085,255.988C209.037,259.431 257.954,298.229 247.413,300.179C246.341,300.378 246.383,300.045 235.815,293.02C215.106,279.253 169.152,237.733 162.078,228.822C159.188,225.182 142.825,210.812 151.509,214.475C160.078,218.089 201.852,253.427 205.085,255.988Z" style="fill:rgb(12,12,12);fill-opacity:0.98;"/>
        <path d="M584.978,184.975C588.539,181.347 610.583,146.975 610.788,146.718C629.671,123.059 627.071,120.681 631.478,118.458C639.006,114.662 627.236,130.861 624.8,134.696C598.121,176.693 598.768,177.048 596.952,179.801C591.108,188.66 590.276,188.067 585.727,197.608C583.045,203.232 568.763,222.416 563.152,231.272C561.284,234.22 551.889,249.483 547.557,248.245C541.546,246.528 547.13,239.192 547.598,238.577C564.375,216.534 579.533,191.553 584.978,184.975Z" style="fill:rgb(12,12,12);fill-opacity:0.98;"/>
        <path d="M730.054,224.008C716.914,235.341 715.529,233.312 701.863,243.956C691.905,251.712 690.04,249.128 681.373,258.375C678.977,260.931 678.243,259.938 645.637,283.692C644.602,284.446 600.151,315.364 593.47,317.394C591.939,317.859 580.89,318.047 591.173,311.021C611.06,297.432 612.393,299.079 642.852,276.977C644.97,275.441 645.078,275.653 670.203,259.043C678.654,253.457 679.232,254.445 687.152,248.072C688.503,246.985 688.691,247.294 705.222,236.085C713.395,230.543 729.413,220.881 731.54,219.597C735.729,217.071 735.296,219.965 735.11,220.187C734.785,220.576 734.666,220.272 730.054,224.008Z" style="fill:rgb(12,12,12);fill-opacity:0.98;"/>
        <path d="M202.031,119.984C206.684,125.78 236.193,166.662 238.146,170.68C241.765,178.129 241.427,178.387 248.133,184.879C250.038,186.723 249.058,187.415 266.975,212.151C268.695,214.526 286.422,239 287.596,242.465C288.982,246.551 284.898,252.153 278.982,243.186C266.666,224.517 265.939,225.091 253.937,206.217C248.255,197.283 247.667,197.731 242.647,188.422C241.846,186.935 241.582,187.127 231.113,170.743C223.945,159.527 223.39,160.001 216.661,148.401C210.769,138.244 190.046,112.957 202.031,119.984Z" style="fill:rgb(12,12,12);fill-opacity:0.98;"/>
        <path d="M571.032,80.044C571.812,78.931 571.724,78.995 571.812,78.931C579.949,73.042 554.449,129.149 549.158,146.383C548.58,148.267 544.935,160.141 540.113,169.299C535.887,177.324 524.973,212.674 518.484,213.017C509.729,213.48 519.777,195.125 521.857,190.666C542.047,147.382 541.462,147.135 543.223,143.376C560.826,105.791 561.525,94.225 571.032,80.044Z" style="fill:rgb(12,12,12);fill-opacity:0.98;"/>
        <path d="M150.749,290.413C153.022,286.596 149.906,287.711 149.746,287.862C146.902,290.546 145.6,288.552 139.875,284.071C135.57,280.702 137.596,277.069 133.502,276.486C120.893,274.689 111.902,261.307 119.404,265.713C131.063,272.559 134.691,271.33 138.579,274.404C146.73,280.848 148.26,278.434 152.428,282.572C155.261,285.386 156.085,283.669 158.286,284.938C179.994,297.458 180.691,296.256 182.255,297.767C188.548,303.843 189.489,302.377 196.754,307.115C222.421,323.856 222.634,324.009 223.435,326.525C226.655,336.641 198.727,317.667 194.591,316.234C188.882,314.256 189.134,313.902 183.482,311.539C177.262,308.939 177.493,308.624 171.614,305.304C166.462,302.395 173.808,299.384 171.424,297.621C170.189,296.707 166.86,299.279 166.527,299.536C164.561,301.055 152.558,293.319 150.749,290.413Z" style="fill:rgb(12,12,12);fill-opacity:0.98;"/>
        <path d="M559.33,171.357C567.677,160.901 565.354,159.296 574.262,149.307C576.933,146.312 584.395,125.757 585.289,133.548C585.836,138.314 577.894,151.351 576.029,153.018C575.313,153.658 574.413,154.064 573.674,154.676C572.138,155.946 574.664,158.342 574.276,160.457C572.532,169.976 572.046,169.809 558.033,198.23C546.162,222.308 543.35,224.596 541.325,226.242C540.812,226.66 540.325,226.903 534.665,221.33C530.892,217.614 546.268,196.4 559.33,171.357Z" style="fill:rgb(12,12,12);fill-opacity:0.98;"/>
        <path d="M667.367,223.189C668.979,225.267 669.025,225.101 670.419,227.448C666.584,231.873 666.728,232.046 661.607,234.727C659.439,235.861 657.349,234.489 656.637,236.563C653.033,247.063 644.855,251.747 643.953,252.897C633.778,265.885 598.859,293.101 592.37,295.048C587.984,296.364 590.032,300.037 585.488,300.225C574.772,300.668 604.09,273.452 614.828,265.969C631.415,254.409 644.875,239.305 667.367,223.189Z" style="fill:rgb(12,12,12);fill-opacity:0.97;"/>
        <path d="M312.966,212.031C312.884,211.894 311.948,210.319 311.948,210.319C304.394,192.293 302.824,193.057 296.249,174.603C294.344,169.257 291.464,167.407 283.969,144.361C280.157,132.638 265.303,104.229 259.448,82.51C259.429,82.441 258.166,73.979 261.998,81.125C282.306,118.992 277.912,120.981 284.874,133.269C292.178,146.159 294.402,156.571 297.889,162.264C303.193,170.922 302.861,170.984 306.919,180.312C307.62,181.924 327.169,218.604 312.966,212.031Z" style="fill:rgb(12,12,12);fill-opacity:0.97;"/>
        <path d="M725.453,412.963C729.903,413.749 756.792,410.248 755.175,415.376C754.038,418.979 710.143,425.842 709.478,425.724C707.433,425.362 707.175,424.717 705.398,426.384C702.304,429.287 701.418,422.452 699.461,424.458C698.957,424.976 699.277,427.665 696.522,427.756C692.985,427.873 693.049,427.699 689.515,427.851C685.924,428.005 685.626,428.498 683.103,425.952C680.892,423.721 680.154,427.397 676.365,425.815C672.803,424.328 674.025,428.958 670.48,428.871C661.129,428.644 661.046,430.704 654.435,428.717C653.47,428.427 635.386,433.24 636.889,428.654C637.117,427.956 637.282,427.997 645.358,425.127C648.536,423.997 651.36,425.72 657.527,423.57C660.042,422.693 660.073,422.586 662.481,423.543C664.358,424.288 665.321,422.326 667.497,422.269C673.209,422.119 673.333,419.007 678.482,421.537C681.082,422.815 681.707,416.71 688.403,417.976C691.757,418.61 700.322,415.452 702.023,418.775C704.983,424.559 706.001,419.415 705.944,418.502C705.624,413.365 709.988,418.951 715.527,415.543C718.655,413.619 719.071,414.948 722.48,413.454C722.701,413.357 722.7,413.418 725.453,412.963Z" style="fill:rgb(12,12,12);fill-opacity:0.97;"/>
        <path d="M691.573,276.918C692.252,277.851 692.112,277.881 693.091,278.603C694.143,281.658 695.096,284.203 672.632,295.747C668.69,297.773 668.92,299.157 667.331,300.242C654.11,309.271 641.078,313.916 640.43,314.414C639.747,314.939 636.546,317.401 631.313,320.131C613.183,329.588 613.164,329.644 611.497,329.631C604.214,329.571 613.591,320.846 620.763,315.858C627.682,311.047 630.024,312.801 631.303,312.07C632.892,311.162 630.981,308.546 656.722,293.884C661.795,290.995 665.003,298.388 665.663,294.555C665.934,292.985 661.876,291.005 668.788,286.957C676.97,282.164 677.568,283.647 678.224,283.165C681.229,280.959 690.475,277.347 691.573,276.918Z" style="fill:rgb(12,12,12);fill-opacity:0.98;"/>
        <path d="M492.999,92.663C496.791,80.801 501.745,55.611 503.661,53.647C506.758,50.471 506.307,57.114 506.282,57.485C505.459,69.611 501.228,90.67 500.653,93.532C494.391,124.703 495.092,124.802 494.466,127.491C486.645,161.085 486.094,161.212 484.627,161.789C473.237,166.266 483.58,135.983 492.999,92.663Z" style="fill:rgb(12,12,12);fill-opacity:0.98;"/>
        <path d="M238.983,220.329C238.749,220.685 239.211,221.25 238.978,221.607C238.127,222.905 237.44,222.15 236.667,223.576C236.206,224.428 236.832,225.766 237.384,225.847C238.312,225.984 238.936,225.289 240.7,223.083C247.413,231.058 247.251,231.101 253.572,239.441C257.661,244.835 261.439,244.46 260.535,250.505C260.406,251.365 270.36,255.832 267.034,261.252C265.372,263.96 263.897,261.405 255.157,252.855C228.523,226.799 224.647,215.697 220.283,210.701C219.812,210.162 214.712,204.323 216.578,202.558C222.19,197.25 214.226,200.807 212.678,200.093C212.13,199.84 211.185,199.404 207.845,194.298C206.056,191.561 210.325,189.329 206.572,188.309C205.315,187.968 205.914,187.39 196.629,175.405C193.564,171.449 196.614,170.943 197.362,171.692C207.532,181.873 223.185,200.076 225.361,202.606C227.528,205.126 226.235,206.05 233.122,212.897C236.241,215.998 235.952,216.162 238.983,220.329Z" style="fill:rgb(12,12,12);fill-opacity:0.98;"/>
        <path d="M292.011,205.768C296.825,215.898 301.717,216.744 295.774,222.769C294.656,223.902 292.476,228.924 289.847,224.304C287.153,219.569 287.201,219.652 285.106,214.684C284.521,213.297 283.515,213.914 275.673,198.41C271.006,189.182 268.126,179.721 263.72,173.335C258.996,166.489 260.943,161.772 251.915,145.272C251.452,144.426 244.73,132.14 249.522,133.449C251.043,133.865 249.407,135.265 259.943,150.187C267.515,160.911 265.091,162.314 273.156,172.783C279.379,180.861 276.983,182.27 287.981,199.182C290.096,202.434 290.093,202.364 292.011,205.768Z" style="fill:rgb(12,12,12);fill-opacity:0.97;"/>
        <path d="M333.969,102.381C326.467,69.18 326.957,53.802 326.981,53.75C328.92,49.539 330.997,59.018 331.12,59.577C340.039,100.265 356.05,155.139 353.216,160.374C345.901,173.885 338.474,124.316 333.969,102.381Z" style="fill:rgb(12,12,12);fill-opacity:0.97;"/>
        <path d="M523.01,133.413C516.011,164.06 515.094,163.924 509.369,180.452C507.839,184.87 506.073,181.191 503.614,178.398C495.803,169.526 502.952,163.413 521.481,117.492C523.485,112.524 526.889,95.634 529.203,100.656C530.502,103.476 523.295,132.111 523.01,133.413Z" style="fill:rgb(13,13,13);fill-opacity:0.98;"/>
        <path d="M612.463,198.159C613.614,200.133 613.905,199.83 615.418,201.522C616.652,202.901 615.345,202.986 611.742,210.615C611.063,212.052 608.747,212.391 608.464,213.477C607.421,217.481 607.124,217.312 604.797,220.722C602.661,219.757 602.724,218.873 600.582,219.76C598.278,220.714 598.611,221.14 596.391,222.351C594.369,223.453 596.471,226.52 599.003,224.029C601.014,222.05 601.191,221.458 603.825,222.642C587.102,246.875 576.247,253.497 570.298,260.329C566.974,264.148 562.303,261.432 566.067,255.222C567.172,253.399 568.007,254.034 581.997,233.858C582.936,232.504 583.478,232.969 594.972,217.856C599.733,211.597 600.33,212.17 604.837,205.746C609.022,199.783 611.685,198.526 612.463,198.159Z" style="fill:rgb(12,12,12);fill-opacity:0.97;"/>
        <path d="M329.031,178.193C326.13,181.908 324.05,183.96 322.753,179.423C320.001,169.793 320.956,169.559 316.93,160.316C314.003,153.592 315.402,153.213 312.718,146.42C312.39,145.591 313.434,145.413 310.587,135.476C308.21,127.183 309.424,127.091 309.423,123.497C309.423,122.604 308.12,121.093 308.068,120.562C307.838,118.228 308.265,118.119 306.865,116.224C304.089,112.468 301.622,98.078 305.376,100.703C306.632,101.581 307.215,110.199 310.231,115.63C311.895,118.625 311.216,118.94 313.361,121.605C314.616,123.165 316.118,131.164 320.853,141.319C323.158,146.261 322.676,146.383 324.827,151.36C330.589,164.69 334.917,167.083 329.031,178.193Z" style="fill:rgb(12,12,12);fill-opacity:0.98;"/>
        <path d="M139.768,419.368C137.676,423.236 137.786,423.255 137.593,423.582C134.008,429.755 132.212,426.108 124.49,425.703C115.965,425.255 115.83,423.964 112.477,423.795C99.913,423.162 77.94,417.233 77.783,417.11C71.037,411.835 92.765,412.674 93.499,412.686C94.782,412.706 106.96,412.897 109.523,413.38C118.887,415.142 119.125,414.144 121.403,415.645C125.448,418.31 126.089,415.749 130.586,417.24C135.301,418.804 136.265,415.951 139.768,419.368Z" style="fill:rgb(12,12,12);fill-opacity:0.98;"/>
        <path d="M139.768,419.368C142.123,422.883 141.64,423.711 143.54,423.712C144.764,423.713 145.078,421.658 145.112,421.439C145.564,418.483 145.768,417.011 150.536,418.373C163.404,422.048 167.49,419.917 165.498,424.499C164.655,426.438 165.632,427.926 164.778,428.957C164.173,429.688 155.139,428.245 154.692,428.044C150.753,426.263 150.642,427.075 146.462,428.352C141.082,429.996 142.518,424.215 137.593,423.582C137.786,423.255 137.676,423.236 139.768,419.368Z" style="fill:rgb(11,11,11);fill-opacity:0.96;"/>
        <path d="M326.027,434.413C326.094,437.734 325.563,437.979 327.783,440.5L328.157,441.5L329.196,442.5L330.555,441.443C333.949,443.353 334.279,442.663 337.299,440.278C338.783,439.105 337.847,438.785 336.331,437.634C333.411,435.418 342.914,431.585 342.631,437.489C342.445,441.384 343.127,442.027 339.756,443.937C336.973,445.514 337.499,448.108 333.528,446.45C333.259,446.338 327.647,443.995 330.976,449.036C333.084,452.229 329.377,452.533 328.516,450.495C326.652,446.085 326.511,446.171 325.617,441.453C325.308,439.824 322.577,441.407 321.759,439.376C321.178,437.932 320.933,438.201 319.447,437.854C317.26,437.344 312.84,427.738 317.514,428.439C319.73,428.771 317.772,434.47 321.419,434.24C323.763,434.092 323.661,434.567 326.027,434.413Z" style="fill:rgb(12,12,12);fill-opacity:0.07;"/>
        <path d="M168.946,424.881C169.274,424.612 169.486,424.22 169.814,423.951C172.313,421.902 200.923,428.121 194.552,430.579C193.199,431.101 171.476,429.818 169.472,429.7C166.101,429.501 167.516,427.878 168.946,424.881Z" style="fill:rgb(12,12,12);fill-opacity:0.97;"/>
        <path d="M616.595,193.519C619.539,188.106 635.056,170.849 635.479,170.892C636.346,170.981 638.446,172.453 630.769,180.714C622.154,189.984 621.575,202.442 616.595,193.519Z" style="fill:rgb(11,11,11);fill-opacity:0.96;"/>
        <path d="M691.573,276.918C692.836,275.924 692.688,275.865 693.588,274.557C694.424,273.343 707.641,268.428 709.451,267.39C729.098,256.114 700.665,279.782 695.548,277.229C693.991,276.452 694.046,277.178 693.091,278.603C692.112,277.881 692.252,277.851 691.573,276.918Z" style="fill:rgb(12,12,12);fill-opacity:0.91;"/>
        <path d="M667.367,223.189C670.675,219.682 680.667,213.932 681.509,213.818C681.815,213.777 684.183,214.374 680.558,217.563C674.403,222.976 674.775,223.296 671.599,226.563C671.206,226.858 670.812,227.153 670.419,227.448C669.025,225.101 668.979,225.267 667.367,223.189Z" style="fill:rgb(12,12,12);fill-opacity:0.8;"/>
        <path d="M731.5,479.591C744.581,479.468 744.476,479.474 757.489,479.154C756.236,480.353 756.592,480.684 755.039,481.5C753.369,482.378 750.617,482.046 743.5,482.06L736.5,482.06L735.5,482.038L734.5,482.038L733.603,481.5L732.5,480.944L731.5,479.591Z" style="fill:rgb(17,17,17);fill-opacity:0.02;"/>
        <path d="M326.027,434.413C325.184,432.27 325.455,432.104 324.489,431.515C324.352,431.431 322.901,430.305 322.901,430.305C322.901,430.305 329.314,425.427 330.689,435.477C331.108,438.539 329.218,438.61 330.555,441.443L329.196,442.5L328.157,441.5L327.783,440.5C325.563,437.979 326.094,437.734 326.027,434.413Z" style="fill:rgb(11,11,11);fill-opacity:0.03;"/>
        <path d="M467.422,639.001C470.248,638.874 470.23,638.844 470.474,638.863C478.017,639.462 472.692,643.392 471.511,643.206C466.655,642.443 465.717,642.461 464.033,647.289C463.292,649.413 460.223,647.6 461.63,645.592C464.306,641.774 462.865,640.07 467.422,639.001Z" style="fill:rgb(11,11,11);fill-opacity:0.09;"/>
        <path d="M406.733,34.129C406.281,33.632 404.669,32.925 405.24,30.41C405.582,28.904 405.874,28.956 405.419,27.536C403.93,22.885 408.836,22.227 409.521,22.447C412.867,23.523 408.97,29.506 408.942,29.603C408.322,31.702 411.773,35.485 406.733,34.129Z" style="fill:rgb(9,9,9);fill-opacity:0.05;"/>
        <path d="M473.879,465.989C468.083,470.923 468.334,465.889 468.592,465.552C469.488,464.378 473.489,464.827 472.101,461.734C469.23,455.336 475.472,455.802 475.467,457.503C475.462,459.268 473.757,459.309 475.161,461.728C476.7,464.379 474.065,465.806 473.879,465.989Z" style="fill:rgb(19,19,19);fill-opacity:0.09;"/>
        <path d="M348.949,456.07C350.713,459.191 349.029,459.894 351.386,462.606C353.47,465.003 351.848,467.846 348.77,465.185C346.093,462.869 344.32,452.901 348.949,456.07Z" style="fill:rgb(17,17,17);fill-opacity:0.11;"/>
        <path d="M499.957,464.682C500.784,463.746 503.55,459.756 505.291,460.869C508.322,462.808 504.948,464.264 505.929,466.435C507.715,470.383 501.365,470.032 499.957,464.682Z" style="fill:rgb(18,18,18);fill-opacity:0.13;"/>
        <path d="M343.483,452.862C345.763,452.962 345.658,453.274 345.601,453.441C345.43,453.948 344.452,455.072 344.338,455.203C341.999,457.892 342.292,458.205 343.343,461.561C344.339,464.737 341.334,465.148 340.91,463.368C339.332,456.747 338.148,456.292 340.626,453.71C341.579,453.428 342.531,453.145 343.483,452.862Z" style="fill:rgb(18,18,18);fill-opacity:0.09;"/>
        <path d="M601.486,479.278C609.488,479.528 609.394,479.332 617.476,479.044C616.97,479.556 617.006,480.458 616.5,480.97C615.061,482.427 605.944,482.048 604.5,482.05L603.95,481.5L602.5,480.937L601.486,479.278Z" style="fill:rgb(17,17,17);fill-opacity:0.02;"/>
        <path d="M73.51,479.189C81.542,479.366 81.462,479.356 89.5,479.49L88.5,480.878L87.34,481.5L86.5,482.046C84.5,482.045 82.5,482.074 80.5,482.073C78.15,482.071 78.081,482.614 75.96,481.5C74.4,480.68 74.748,480.357 73.51,479.189Z" style="fill:rgb(17,17,17);fill-opacity:0.02;"/>
        <path d="M421.213,23.104C421.357,23.033 421.522,22.231 423.493,22.567C430.916,23.829 426.906,30.007 423.544,28.428C420.396,26.95 420.158,26.422 421.213,23.104Z" style="fill:rgb(9,9,9);fill-opacity:0.02;"/>
        <path d="M459.386,664.38C455.456,664.178 456.473,661.323 452.503,661.124C452.12,661.105 446.135,660.804 448.501,658.5C451.563,655.518 457.836,661.463 458.393,661.884C459.577,662.779 459.454,662.904 459.386,664.38Z" style="fill:rgb(13,13,13);fill-opacity:0.23;"/>
        <path d="M287.445,356.407C284.247,358.884 285.04,364.619 279.605,363.267C277.749,362.805 284.332,357.032 285.037,355.212C285.403,354.266 285.476,354.247 286.524,354.331C287.241,354.389 287.348,354.631 287.378,354.699C287.742,355.519 287.056,355.532 287.445,356.407Z" style="fill:rgb(1,1,1);"/>
        <path d="M501.088,636.789C499.685,633.705 499.195,633.804 499.71,630.544C499.762,630.22 502.243,626.141 503.304,632.537C503.55,634.023 505.41,641.026 501.088,636.789Z" style="fill:rgb(10,10,10);fill-opacity:0.06;"/>
        <path d="M500.063,456.826C501.714,461.369 497.881,459.743 497.637,458.478C497.056,455.457 493.076,448.635 498.394,450.745C498.546,450.806 499.543,451.201 499.455,452.501C499.301,454.77 499.27,454.73 500.063,456.826Z" style="fill:rgb(20,20,20);fill-opacity:0.12;"/>
        <path d="M461.314,461.571C462.762,458.919 463.535,456.062 465.851,458.178C466.377,458.659 470.024,458.701 469.198,461.295C468.624,463.097 466.354,461.329 461.503,462.494L461.314,461.571Z" style="fill:rgb(13,13,13);fill-opacity:0.13;"/>
        <path d="M511.906,443.929C514.332,442.948 514.908,443.642 516.002,441.337C518.037,437.048 521.294,443.044 518.378,444.247C514.467,445.86 511.239,448.68 511.906,443.929Z" style="fill:rgb(19,19,19);fill-opacity:0.16;"/>
        <path d="M364.512,449.601C366.631,452.773 368.14,454.25 364.454,455.192C360.615,456.172 357.415,450.446 364.512,449.601Z" style="fill:rgb(11,11,11);fill-opacity:0.02;"/>
        <path d="M287.216,337.263C286.047,338.772 286.433,338.91 285.463,340.468C283.089,344.281 282.455,338.681 283.628,335.557C284.33,333.688 290.64,331.11 287.216,337.263Z" style="fill:rgb(13,13,13);fill-opacity:0.06;"/>
        <path d="M591.11,235.075C590.765,235.422 584.807,241.431 585.157,236.477C585.186,236.067 597.588,225.129 591.11,235.075Z" style="fill:rgb(18,18,18);fill-opacity:0.14;"/>
        <path d="M226.91,671.765C229.827,669.016 231.563,671.658 230.176,673.225C226.794,677.046 228.892,679.222 226.523,679.131C223.887,679.029 226.744,672.356 226.91,671.765Z" style="fill:rgb(15,15,15);fill-opacity:0.15;"/>
        <path d="M44.798,414.16C43.578,412.73 44.297,411.626 44.417,411.442C45.433,409.88 44.766,409.088 44.893,408.526C45.94,403.895 48.068,410.751 48.102,410.797C50.428,413.837 48.539,415.153 44.798,414.16Z" style="fill:rgb(13,13,13);fill-opacity:0.05;"/>
        <path d="M504.091,445.061C504.342,444.93 507.925,443.069 507.343,446.467C506.39,452.039 506.837,452.151 506.468,452.466C503.884,454.673 504.273,447.973 504.198,447.855C503.39,446.576 503.506,446.533 504.091,445.061Z" style="fill:rgb(21,21,21);fill-opacity:0.16;"/>
        <path d="M638.068,361.067C630.54,362.29 641.031,352.064 642.979,357.352C643.543,358.883 642.085,359.335 641.533,359.216C641.469,359.202 639.644,357.574 638.068,361.067Z" style="fill:rgb(16,16,16);fill-opacity:0.22;"/>
        <path d="M604.797,220.722C604.473,221.362 604.149,222.002 603.825,222.642C601.191,221.458 601.014,222.05 599.003,224.029C596.471,226.52 594.369,223.453 596.391,222.351C598.611,221.14 598.278,220.714 600.582,219.76C602.724,218.873 602.661,219.757 604.797,220.722Z" style="fill:rgb(17,17,17);fill-opacity:0.44;"/>
        <path d="M257.141,701.045C262.886,697.738 259.098,705.432 258.245,706.204C257.932,706.487 252.484,707.334 257.141,701.045Z" style="fill:rgb(12,12,12);fill-opacity:0.04;"/>
        <path d="M431.681,45.042C435.478,47.343 431.036,49.026 429.836,47.321C429.553,46.918 424.908,40.32 429.605,41.175C430.582,41.353 430.245,43.003 431.681,45.042Z" style="fill:rgb(16,16,16);fill-opacity:0.21;"/>
        <path d="M487.038,460.015C483.056,461.897 482.366,457.22 486.565,455.78C486.676,455.742 492.36,455.192 487.038,460.015Z" style="fill:rgb(18,18,18);fill-opacity:0.04;"/>
        <path d="M482.104,440.6C482.735,438.131 483.304,437.05 485.223,438.817C485.49,439.062 487.924,441.302 486.209,443.231C484.296,445.382 482.266,440.954 482.104,440.6Z" style="fill:rgb(12,12,12);fill-opacity:0.02;"/>
        <path d="M420.718,220.051C424.819,224.26 420.896,224.241 420.6,224.108C420.195,223.926 412.205,220.33 417.502,219.507C418.859,219.297 418.786,219.554 420.718,220.051Z" style="fill:rgb(19,19,19);fill-opacity:0.08;"/>
        <path d="M424.403,692.626C427.48,693.706 427.486,692.4 429.493,692.397C432.667,692.392 431.822,696.815 427.346,695.856C427.119,695.808 425.973,695.562 424.478,695.437C424.453,694.5 424.428,693.563 424.403,692.626Z" style="fill:rgb(11,11,11);fill-opacity:0.15;"/>
        <path d="M331.953,464.921C332.247,464.789 335.56,463.302 335.674,466.493C335.782,469.546 329.118,470.342 331.953,464.921Z" style="fill:rgb(17,17,17);fill-opacity:0.04;"/>
        <path d="M498.064,433.924C499.738,439.259 493.393,438.916 494.164,435.415C494.728,432.853 497.746,433.822 498.064,433.924Z" style="fill:rgb(15,15,15);fill-opacity:0.02;"/>
        <path d="M161.982,644.038C160.856,641.561 159.412,641.201 161.448,639.434C163.895,637.31 167.877,646.688 161.982,644.038Z" style="fill:rgb(12,12,12);fill-opacity:0.08;"/>
        <path d="M509.135,437.366C509.414,437.059 510.215,436.176 513.548,434.633C514.865,434.023 515.678,435.46 515.171,436.411C514.52,437.632 511.954,438.812 511.637,438.958C510.131,438.56 510.13,438.602 509.135,437.366Z" style="fill:rgb(19,19,19);fill-opacity:0.18;"/>
        <path d="M424.403,692.626C424.428,693.563 424.453,694.5 424.478,695.437C424.17,695.468 421.553,695.729 420.608,695.249C419.459,694.666 418.268,690.288 424.403,692.626Z" style="fill:rgb(11,11,11);fill-opacity:0.08;"/>
        <path d="M467.781,629.034C467.595,628.758 465.661,625.878 468.644,624.967C470.825,624.301 474.196,631.342 467.781,629.034Z" style="fill:rgb(11,11,11);fill-opacity:0.06;"/>
        <path d="M194.025,359.844C190.55,356.065 191.25,355.678 191.431,355.45C193.369,353.012 200.906,363.793 194.025,359.844Z" style="fill:rgb(18,18,18);fill-opacity:0.29;"/>
        <path d="M494.053,444.127C491.42,445.985 489.823,445.594 490.329,442.469C490.64,440.556 496.241,438.768 494.053,444.127Z" style="fill:rgb(17,17,17);fill-opacity:0.04;"/>
        <path d="M561.347,173.576C561.554,173.225 563.321,170.246 565.476,170.594C566.406,170.745 567.073,172.16 566.268,173.345C564.431,176.051 561.654,173.822 561.347,173.576Z" style="fill:rgb(18,18,18);fill-opacity:0.07;"/>
        <path d="M343.483,452.862C342.531,453.145 341.579,453.428 340.626,453.71L339.5,452.133C341.795,447.904 345.566,448.779 344.5,450.5C344.302,450.818 343.648,450.668 343.5,451.012C343.256,451.578 343.727,452.295 343.483,452.862Z" style="fill:rgb(19,19,19);fill-opacity:0.74;"/>
        <path d="M289.485,339.566C289.768,339.805 292.184,341.844 291.734,343.597C291.037,346.307 285.308,342.525 289.485,339.566Z" style="fill:rgb(17,17,17);fill-opacity:0.08;"/>
        <path d="M494.814,424.71C497.389,430.883 493.706,429.868 493.416,429.584C493.335,429.505 492.645,428.83 492.712,428.354C492.875,427.201 492.576,427.276 492.435,426.164C493.228,425.679 494.021,425.195 494.814,424.71Z" style="fill:rgb(12,12,12);fill-opacity:0.2;"/>
        <path d="M260.89,719.715C260.438,721.194 260.459,721.122 259.746,722.578C259.388,722.364 251.559,717.684 257.481,717.885C258.641,717.924 260.648,719.523 260.89,719.715Z" style="fill:rgb(7,7,7);fill-opacity:0.4;"/>
        <path d="M365.525,466.621C367.344,466.367 367.58,465.852 368.718,467.334C369.158,467.906 369.561,469.391 369.036,470.378C367.213,473.804 365.62,467.021 365.525,466.621Z" style="fill:rgb(21,21,21);"/>
        <path d="M787.231,414.008C781.181,415.016 782.486,412.173 782.805,411.948C783.125,411.723 785.683,411.415 786.497,411.517C788.229,411.733 787.892,412.381 787.231,414.008Z" style="fill:rgb(10,10,10);fill-opacity:0.82;"/>
        <path d="M371.97,459.904C369.173,461.567 369.034,463.619 366.697,461.43C367.862,457.869 371.399,458.057 371.5,458.235C371.785,458.738 371.685,459.401 371.97,459.904Z" style="fill:rgb(20,20,20);fill-opacity:0.59;"/>
        <path d="M478.934,467.629C483.978,462.473 483.069,468.941 482.448,469.435C480.234,471.196 479.042,467.926 478.934,467.629Z" style="fill:rgb(20,20,20);fill-opacity:0.09;"/>
        <path d="M238.983,220.329C240.071,221.628 240.073,221.569 240.7,223.083C238.936,225.289 238.312,225.984 237.384,225.847C236.832,225.766 236.206,224.428 236.667,223.576C237.44,222.15 238.127,222.905 238.978,221.607C239.211,221.25 238.749,220.685 238.983,220.329Z" style="fill:rgb(17,17,17);fill-opacity:0.35;"/>
        <path d="M461.965,468.715C464.135,466.116 465.779,468.098 464.7,470.608C464.595,470.853 461.07,474.898 461.965,468.715Z" style="fill:rgb(21,21,21);fill-opacity:0.1;"/>
        <path d="M470.934,450.652C472.565,449.161 473.368,448.515 474.056,450.61C474.758,452.751 470.215,455.703 470.934,450.652Z" style="fill:rgb(17,17,17);fill-opacity:0.07;"/>
        <path d="M509.135,437.366C510.13,438.602 510.131,438.56 511.637,438.958C511.333,439.198 506.55,443.525 506.171,440.578C505.964,438.965 506.731,439.358 509.135,437.366Z" style="fill:rgb(20,20,20);fill-opacity:0.32;"/>
        <path d="M523.994,436.772C521.655,438.66 519.843,438.433 520.584,435.527C520.924,434.19 525.438,432.632 523.994,436.772Z" style="fill:rgb(16,16,16);fill-opacity:0.06;"/>
        <path d="M481.916,448.094C483.78,453.225 479.737,451.708 479.408,450.535C478.687,447.969 479.476,447.064 481.916,448.094Z" style="fill:rgb(18,18,18);fill-opacity:0.08;"/>
        <path d="M640.136,253.127C635.396,255.974 637.424,249.941 639.582,250.093C641.308,250.216 640.228,252.898 640.136,253.127Z" style="fill:rgb(17,17,17);fill-opacity:0.15;"/>
        <path d="M518.772,648.108C519.962,650.207 519.936,651.22 517.497,651.234C515.461,651.246 514.322,647.007 518.772,648.108Z" style="fill:rgb(12,12,12);fill-opacity:0.07;"/>
        <path d="M416.883,41.26C416.726,38.976 416.283,37.826 418.575,38.266C420.493,38.634 420.042,45.013 416.883,41.26Z" style="fill:rgb(17,17,17);fill-opacity:0.05;"/>
        <path d="M308.737,454.101C308.271,452.469 307.892,452.141 309.374,451.296C309.565,451.187 312.218,449.674 312.11,451.581C311.972,454.031 309.074,454.094 308.737,454.101Z" style="fill:rgb(21,21,21);fill-opacity:0.16;"/>
        <path d="M477.054,580.071C471.674,581.92 473.132,578.614 473.34,578.361C473.582,578.066 475.324,577.639 476.338,577.939C477.649,578.326 477.237,578.685 477.054,580.071Z" style="fill:rgb(13,13,13);fill-opacity:0.15;"/>
        <path d="M286.052,428.099C288.13,427.093 289.155,427.359 288.655,429.547C288.338,430.932 284.164,432.818 286.052,428.099Z" style="fill:rgb(22,22,22);fill-opacity:0.08;"/>
        <path d="M308.393,440.008C302.655,438.796 308.499,436.378 309.607,437.382C310.982,438.628 309.771,438.775 308.393,440.008Z" style="fill:rgb(16,16,16);fill-opacity:0.09;"/>
        <path d="M414.002,41.038C409.25,44.088 410.671,39.554 411.324,39.237C413.274,38.288 413.625,38.908 414.002,41.038Z" style="fill:rgb(12,12,12);fill-opacity:0.09;"/>
        <path d="M499.349,443.03C503.702,443.531 500.389,446.663 499.49,446.561C496.624,446.236 499.166,443.246 499.349,443.03Z" style="fill:rgb(22,22,22);fill-opacity:0.06;"/>
        <path d="M473.119,571.843C472.543,570.024 472.593,569.454 474.482,569.297C476.832,569.1 476.789,573.133 473.119,571.843Z" style="fill:rgb(17,17,17);fill-opacity:0.06;"/>
        <path d="M389.176,839.967C388.289,838.307 387.476,838.135 388.797,836.807C390.569,835.023 393.622,841.144 389.176,839.967Z" style="fill:rgb(13,13,13);fill-opacity:0.04;"/>
        <path d="M537.138,656.082C534.621,656.649 533.124,655.856 534.911,653.9C535.049,653.748 536.275,652.406 537.456,653.54C538.572,654.611 537.76,654.716 537.138,656.082Z" style="fill:rgb(16,16,16);fill-opacity:0.1;"/>
        <path d="M492.083,455.473C491,453.527 490.996,453.545 490.913,453.371C489.905,451.272 493.05,449.53 493.251,452.515C493.463,455.654 492.287,455.111 492.083,455.473Z" style="fill:rgb(20,20,20);fill-opacity:0.18;"/>
        <path d="M442.787,672.179C442.468,670.547 441.82,669.955 443.518,669.565C445.531,669.104 446.682,673.049 442.787,672.179Z" style="fill:rgb(17,17,17);fill-opacity:0.07;"/>
        <path d="M336.022,430.189C332.201,432.829 332.998,428.484 334.388,428.058C336.156,427.515 336.136,428.353 336.022,430.189Z" style="fill:rgb(19,19,19);fill-opacity:0.12;"/>
        <path d="M242.966,745.218C242.966,743.849 242.528,743.592 243.75,742.964C245.333,742.149 246.072,743.542 246.075,743.598C246.226,746.086 245.258,746.19 242.966,745.218Z" style="fill:rgb(14,14,14);fill-opacity:0.16;"/>
        <path d="M419.45,23.335C414.646,26.167 416.716,21.949 416.851,21.746C418.226,19.689 419.182,20.878 419.45,23.335Z" style="fill:rgb(11,11,11);fill-opacity:0.16;"/>
        <path d="M505.103,436.045C501.351,437.24 502.569,433.413 504.488,433.586C506.166,433.737 505.681,434.441 505.103,436.045Z" style="fill:rgb(20,20,20);fill-opacity:0.09;"/>
        <path d="M490.929,466.849C488.805,467.705 487.794,467.67 488.109,465.393C488.203,464.714 492.046,462.545 490.929,466.849Z" style="fill:rgb(20,20,20);fill-opacity:0.09;"/>
        <path d="M209.102,590.739C208.45,588.286 209.379,587.11 211.374,588.699C211.565,588.851 214.134,592.078 209.102,590.739Z" style="fill:rgb(11,11,11);fill-opacity:0.15;"/>
        <path d="M293.826,427.083C293.193,425.698 292.334,425.554 293.516,424.519C295.101,423.132 297.882,427.633 293.826,427.083Z" style="fill:rgb(21,21,21);fill-opacity:0.11;"/>
        <path d="M571.165,162.873C570.591,164.936 571.278,165.878 569.444,165.792C568.522,165.749 568.437,164.642 568.427,164.511C568.259,162.318 569.066,162.26 571.165,162.873Z" style="fill:rgb(17,17,17);fill-opacity:0.13;"/>
        <path d="M474.064,481.642C474.525,480.144 473.988,479.44 475.501,479.461C476.947,479.481 477.847,484.633 474.064,481.642Z" style="fill:rgb(20,20,20);fill-opacity:0.11;"/>
        <path d="M352.899,476.599C351.22,478.021 350.45,478.497 349.763,476.45C349.621,476.026 350.211,475.035 350.683,474.858C352.298,474.255 352.203,474.94 352.899,476.599Z" style="fill:rgb(22,22,22);fill-opacity:0.21;"/>
        <path d="M542.063,668.2C537.277,671.107 539.899,666.372 540.379,666.236C542.13,665.737 542.239,666.417 542.063,668.2Z" style="fill:rgb(13,13,13);fill-opacity:0.22;"/>
        <path d="M533.966,73.679C536.418,70.746 536.767,74.179 536.686,74.561C536.639,74.785 535.084,78.527 533.966,73.679Z" style="fill:rgb(9,9,9);fill-opacity:0.84;"/>
        <path d="M476.872,624.815C473.912,626.22 474.135,621.866 476.521,622.455C478.033,622.828 477.377,623.39 476.872,624.815Z" style="fill:rgb(11,11,11);fill-opacity:0.13;"/>
        <path d="M381.699,764.422C381.914,762.051 382.677,760.822 384.223,762.726C384.376,762.915 386.529,766.811 381.699,764.422Z" style="fill:rgb(14,14,14);fill-opacity:0.11;"/>
        <path d="M461.044,733.151C456.35,734.714 458.741,730.943 459.522,730.895C461.297,730.786 461.166,731.423 461.044,733.151Z" style="fill:rgb(13,13,13);fill-opacity:0.14;"/>
        <path d="M492.62,458.404C492.706,458.442 496.945,460.142 495.571,461.574C495.331,461.824 493.988,463.074 492.62,458.404Z" style="fill:rgb(21,21,21);fill-opacity:0.37;"/>
        <path d="M300.015,432.463C301.379,431.191 301.327,431.092 301.488,431.089C304.383,431.026 302.099,435.436 300.393,433.606C300.119,433.312 300.289,432.756 300.015,432.463Z" style="fill:rgb(21,21,21);fill-opacity:0.14;"/>
        <path d="M304.068,424.507C303.761,424.767 303.9,425.356 303.593,425.616C301.793,427.139 300.167,422.929 302.508,422.839C302.69,422.832 302.62,422.959 304.068,424.507Z" style="fill:rgb(21,21,21);fill-opacity:0.16;"/>
        <path d="M448.961,650.673C450.081,649.431 450.483,649.234 451.407,650.552C451.533,650.732 450.426,656.213 448.961,650.673Z" style="fill:rgb(14,14,14);fill-opacity:0.16;"/>
        <path d="M602.948,213.849C603.134,213.775 605.049,213.013 605.441,213.584C606.263,214.781 602.305,218.699 602.948,213.849Z" style="fill:rgb(16,16,16);fill-opacity:0.19;"/>
        <path d="M318.257,454.088C319.872,453.825 320.452,453.783 320.299,455.484C320.211,456.473 316.159,458.182 318.257,454.088Z" style="fill:rgb(22,22,22);fill-opacity:0.26;"/>
        <path d="M408.305,227.508C406.889,228.208 406.561,228.789 405.663,227.41C405.1,226.546 407.443,222.85 408.305,227.508Z" style="fill:rgb(20,20,20);fill-opacity:0.29;"/>
        <path d="M233.074,661.962C234.836,666.968 231.194,663.895 231.121,663.699C230.455,661.913 231.214,661.627 233.074,661.962Z" style="fill:rgb(14,14,14);fill-opacity:0.16;"/>
        <path d="M198.218,604.026C198.415,603.991 201.032,603.532 200.272,605.444C200.131,605.798 195.756,609.036 198.218,604.026Z" style="fill:rgb(12,12,12);fill-opacity:0.18;"/>
        <path d="M216.791,584.001C216.282,582.426 215.891,581.761 217.512,581.684C218.369,581.643 221.172,584.362 216.791,584.001Z" style="fill:rgb(11,11,11);fill-opacity:0.5;"/>
        <path d="M170.917,146.236C170.88,144.566 170.893,143.893 172.555,144.387C172.614,144.404 175.861,148.959 170.917,146.236Z" style="fill:rgb(11,11,11);fill-opacity:0.65;"/>
        <path d="M381.033,766.503C381.281,771.109 378.411,768.381 378.545,767.51C378.578,767.298 378.7,766.507 381.033,766.503Z" style="fill:rgb(14,14,14);fill-opacity:0.3;"/>
        <path d="M288.061,437.5C288.87,433.12 290.553,435.188 290.6,435.445C290.846,436.799 290.401,436.619 289.587,437.738L288.061,437.5Z" style="fill:rgb(20,20,20);fill-opacity:0.3;"/>
        <path d="M167.062,292.852C167.528,295.019 166.95,296.262 165.241,294.842C165.075,294.704 162.498,292.012 167.062,292.852Z" style="fill:rgb(18,18,18);fill-opacity:0.24;"/>
        <path d="M308.027,425.986C307.629,424.659 307.23,424.293 308.541,423.809C309.478,423.463 312.331,427.263 308.027,425.986Z" style="fill:rgb(19,19,19);fill-opacity:0.27;"/>
        <path d="M387.518,829.935C388.744,831.42 388.839,831.372 388.842,831.539C388.886,833.942 385.12,832.086 386.446,830.461C386.698,830.152 387.267,830.243 387.518,829.935Z" style="fill:rgb(15,15,15);fill-opacity:0.13;"/>
        <path d="M533.736,669.691C535.026,668.623 535.429,668.127 536.401,669.562C536.867,670.249 535.476,673.811 533.736,669.691Z" style="fill:rgb(12,12,12);fill-opacity:0.24;"/>
        <path d="M297.996,73.928C293.492,75.278 296.021,72.278 296.165,72.132C297.734,70.537 298.488,71.81 297.996,73.928Z" style="fill:rgb(10,10,10);fill-opacity:0.45;"/>
        <path d="M318.341,443.021C320.294,443.38 321.04,444.237 319.347,445.261C319.179,445.363 315.833,446.569 318.341,443.021Z" style="fill:rgb(21,21,21);fill-opacity:0.33;"/>
        <path d="M462.069,631.822C462.348,635.429 459.036,633.072 459.907,631.792C460.537,630.866 460.736,631.451 462.069,631.822Z" style="fill:rgb(10,10,10);fill-opacity:0.35;"/>
        <path d="M479.967,619.74C476.461,621.559 477.657,618.843 477.762,618.678C478.984,616.768 480.37,617.567 479.967,619.74Z" style="fill:rgb(11,11,11);fill-opacity:0.5;"/>
        <path d="M304.104,444.152C306.109,443.426 307.381,444.265 305.863,445.855C305.728,445.996 302.898,448.438 304.104,444.152Z" style="fill:rgb(20,20,20);fill-opacity:0.29;"/>
        <path d="M387.038,753.091C384.993,753.626 383.763,753.513 384.764,751.667C384.866,751.478 387.648,748.029 387.038,753.091Z" style="fill:rgb(14,14,14);fill-opacity:0.42;"/>
        <path d="M304.181,453.1C299.602,453.374 303.405,450.315 304.305,450.855C305.256,451.425 304.637,451.616 304.181,453.1Z" style="fill:rgb(20,20,20);fill-opacity:0.52;"/>
        <path d="M462.218,481.058C458.192,481.108 461.197,478.193 462.302,478.83C463.359,479.44 462.666,479.689 462.218,481.058Z" style="fill:rgb(21,21,21);fill-opacity:0.43;"/>
        <path d="M214.543,196.981C214.232,196.714 213.676,196.891 213.365,196.624C211.807,195.285 215.426,193.511 215.698,195.461C215.806,196.24 215.618,196.488 215.564,196.558C215.172,197.075 214.911,196.497 214.543,196.981Z" style="fill:rgb(17,17,17);fill-opacity:0.28;"/>
        <path d="M444.022,805.318C445.213,804.652 445.271,803.952 446.195,804.83C447.063,805.654 444.9,809.304 444.022,805.318Z" style="fill:rgb(11,11,11);fill-opacity:0.28;"/>
        <path d="M532.813,662.051C532.458,660.732 531.884,660.531 532.812,659.931C534.01,659.156 536.373,662.178 532.813,662.051Z" style="fill:rgb(13,13,13);fill-opacity:0.36;"/>
        <path d="M463.111,656.25C467.431,654.148 464.902,657.698 464.772,657.827C463.403,659.169 462.698,658.183 463.111,656.25Z" style="fill:rgb(11,11,11);fill-opacity:0.47;"/>
        <path d="M443.802,516.041C443.471,514.733 442.924,514.539 443.822,513.955C444.965,513.212 447.316,516.118 443.802,516.041Z" style="fill:rgb(11,11,11);fill-opacity:0.36;"/>
        <path d="M433.461,548.037C433.895,548.548 434.185,547.863 434.625,548.38C434.691,548.458 434.967,548.782 434.829,549.644C434.596,551.094 431.247,550.007 432.455,548.458C432.678,548.171 433.237,548.324 433.461,548.037Z" style="fill:rgb(12,12,12);fill-opacity:0.48;"/>
        <path d="M415.061,17.21C411.212,18.536 412.739,15.967 412.882,15.817C414.165,14.465 414.411,15.517 415.061,17.21Z" style="fill:rgb(15,15,15);fill-opacity:0.41;"/>
        <path d="M548.52,431.012C548.084,430.509 547.857,431.023 547.444,430.547C547.384,430.477 547.094,430.143 547.152,429.434C547.173,429.179 551.003,427.239 548.52,431.012Z" style="fill:rgb(23,23,23);fill-opacity:0.51;"/>
        <path d="M277.899,418.23C277.815,416.845 277.752,416.936 277.815,416.845C279.262,414.784 280.856,419.397 278.43,418.848C278.165,418.788 278.164,418.29 277.899,418.23Z" style="fill:rgb(15,15,15);fill-opacity:0.37;"/>
        <path d="M420.315,31.051C420.634,31.379 421.335,31.021 421.654,31.348C422.828,32.554 421.528,33.22 421.388,33.291C421.211,33.382 418.438,34.603 420.315,31.051Z" style="fill:rgb(19,19,19);fill-opacity:0.46;"/>
    </g>
</svg>
